<?xml version="1.0" encoding="utf-8"?>
<!-- Generator: Adobe Illustrator 15.0.0, SVG Export Plug-In . SVG Version: 6.00 Build 0)  -->
<!DOCTYPE svg PUBLIC "-//W3C//DTD SVG 1.1//EN" "http://www.w3.org/Graphics/SVG/1.1/DTD/svg11.dtd">
<svg version="1.1" id="Capa_1" xmlns="http://www.w3.org/2000/svg" xmlns:xlink="http://www.w3.org/1999/xlink" x="0px" y="0px"
	 width="100px" height="100px" viewBox="50.5 0 100 100" enable-background="new 50.5 0 100 100" xml:space="preserve">
<g>
	<rect x="108.852" y="32.798" fill="#C8175B" width="27.505" height="35.999"/>
	<g>
		<path fill="#EB5C2D" d="M64.448,11.765v56.268H102.2L64.448,11.765z M72.718,38.551l14.021,20.853H72.718V38.551z"/>
		<rect x="64.452" y="18.237" fill="#C8175B" width="2.729" height="1.584"/>
		<rect x="64.452" y="22.052" fill="#C8175B" width="2.729" height="1.584"/>
		<rect x="64.452" y="25.81" fill="#C8175B" width="2.729" height="1.584"/>
		<rect x="64.452" y="29.625" fill="#C8175B" width="2.729" height="1.584"/>
		<rect x="64.452" y="33.371" fill="#C8175B" width="2.729" height="1.584"/>
		<rect x="64.452" y="37.186" fill="#C8175B" width="2.729" height="1.584"/>
		<rect x="64.452" y="40.944" fill="#C8175B" width="2.729" height="1.584"/>
		<rect x="64.452" y="44.759" fill="#C8175B" width="2.729" height="1.584"/>
		<rect x="64.452" y="48.708" fill="#C8175B" width="2.729" height="1.584"/>
		<rect x="64.452" y="52.522" fill="#C8175B" width="2.729" height="1.584"/>
		<rect x="64.452" y="56.281" fill="#C8175B" width="2.729" height="1.584"/>
		<rect x="64.452" y="60.095" fill="#C8175B" width="2.729" height="1.584"/>
		<rect x="64.452" y="63.842" fill="#C8175B" width="2.729" height="1.584"/>
	</g>
	<rect x="108.852" y="57.876" fill="#FFFFFF" width="27.505" height="11.46"/>
	<g>
		<path fill="#010202" d="M111.481,59.844h1.131c0.225,0,0.404,0.061,0.542,0.183c0.139,0.122,0.206,0.292,0.206,0.513
			c0,0.189-0.062,0.354-0.184,0.495c-0.123,0.141-0.312,0.211-0.563,0.211h-0.79v1.025h-0.342V59.844z M112.81,60.178
			c-0.075-0.035-0.179-0.052-0.31-0.052h-0.678v0.841h0.678c0.152,0,0.275-0.031,0.372-0.094c0.095-0.063,0.143-0.174,0.143-0.332
			C113.015,60.363,112.946,60.242,112.81,60.178z"/>
		<path fill="#010202" d="M114.277,59.844h0.388l0.918,2.426h-0.375l-0.266-0.727h-0.992l-0.273,0.727h-0.352L114.277,59.844z
			 M114.846,61.276l-0.389-1.072l-0.405,1.072H114.846z"/>
		<path fill="#010202" d="M115.891,59.844h0.403l1.262,1.96v-1.96h0.327v2.426h-0.385l-1.28-1.958v1.958h-0.327V59.844z"/>
		<path fill="#010202" d="M120.275,59.844v0.289h-0.853v2.137h-0.347v-2.137h-0.853v-0.289H120.275z"/>
		<path fill="#010202" d="M122.611,60.191c0.167,0.215,0.251,0.49,0.251,0.824c0,0.363-0.096,0.664-0.287,0.904
			c-0.226,0.282-0.546,0.423-0.963,0.423c-0.389,0-0.693-0.123-0.917-0.37c-0.198-0.238-0.298-0.539-0.298-0.902
			c0-0.328,0.085-0.609,0.255-0.842c0.219-0.299,0.54-0.449,0.969-0.449C122.066,59.778,122.396,59.916,122.611,60.191z
			 M122.31,61.738c0.134-0.208,0.201-0.446,0.201-0.717c0-0.285-0.077-0.515-0.232-0.689s-0.367-0.261-0.638-0.261
			c-0.262,0-0.476,0.086-0.641,0.259c-0.165,0.172-0.248,0.426-0.248,0.763c0,0.269,0.069,0.496,0.212,0.68
			c0.142,0.185,0.372,0.277,0.689,0.277C121.956,62.049,122.174,61.946,122.31,61.738z"/>
		<path fill="#010202" d="M123.271,59.844h0.403l1.261,1.96v-1.96h0.327v2.426h-0.385l-1.279-1.958v1.958h-0.327V59.844z"/>
		<path fill="#010202" d="M125.85,59.844h1.834v0.297h-1.501v0.737h1.388v0.281h-1.388v0.823h1.527v0.289h-1.86V59.844
			L125.85,59.844z"/>
		<path fill="#010202" d="M111.422,65.798c0.075-0.149,0.225-0.288,0.446-0.411l0.33-0.184c0.147-0.083,0.251-0.153,0.312-0.211
			c0.095-0.091,0.142-0.196,0.142-0.314c0-0.138-0.043-0.248-0.129-0.329s-0.201-0.122-0.345-0.122c-0.212,0-0.359,0.078-0.44,0.232
			c-0.044,0.083-0.066,0.198-0.071,0.345h-0.315c0.004-0.206,0.044-0.374,0.119-0.504c0.135-0.229,0.371-0.343,0.711-0.343
			c0.282,0,0.488,0.073,0.619,0.219c0.13,0.146,0.195,0.31,0.195,0.489c0,0.189-0.069,0.351-0.209,0.485
			c-0.08,0.078-0.225,0.173-0.433,0.284l-0.235,0.125c-0.111,0.061-0.2,0.116-0.266,0.17c-0.114,0.097-0.187,0.203-0.217,0.318
			h1.347v0.281h-1.691C111.302,66.126,111.345,65.95,111.422,65.798z"/>
		<path fill="#010202" d="M114.984,64.004v0.259c-0.079,0.074-0.186,0.203-0.315,0.385c-0.132,0.183-0.248,0.38-0.35,0.591
			c-0.1,0.206-0.176,0.394-0.228,0.562c-0.032,0.109-0.076,0.285-0.129,0.527h-0.343c0.078-0.451,0.25-0.9,0.517-1.348
			c0.157-0.262,0.322-0.488,0.496-0.679h-1.363v-0.299L114.984,64.004L114.984,64.004z"/>
		<path fill="#010202" d="M115.569,65.757c0.01,0.164,0.075,0.277,0.198,0.341c0.062,0.031,0.134,0.049,0.213,0.049
			c0.147,0,0.274-0.06,0.379-0.178c0.104-0.117,0.179-0.357,0.223-0.721c-0.068,0.104-0.153,0.178-0.257,0.22
			c-0.101,0.042-0.211,0.064-0.326,0.064c-0.238,0-0.427-0.071-0.564-0.213s-0.207-0.325-0.207-0.548
			c0-0.214,0.068-0.403,0.205-0.566s0.338-0.245,0.604-0.245c0.358,0,0.606,0.155,0.743,0.466c0.076,0.17,0.114,0.384,0.114,0.64
			c0,0.29-0.046,0.545-0.137,0.77c-0.15,0.372-0.405,0.559-0.766,0.559c-0.239,0-0.424-0.062-0.549-0.183s-0.188-0.272-0.188-0.456
			L115.569,65.757L115.569,65.757z M116.376,65.155c0.101-0.078,0.151-0.213,0.151-0.407c0-0.173-0.046-0.303-0.138-0.388
			c-0.091-0.085-0.207-0.128-0.348-0.128c-0.152,0-0.272,0.049-0.361,0.146c-0.089,0.098-0.133,0.228-0.133,0.39
			c0,0.154,0.039,0.276,0.116,0.367c0.077,0.091,0.202,0.136,0.374,0.136C116.162,65.271,116.273,65.233,116.376,65.155z"/>
		<path fill="#010202" d="M120.098,64.081c0.175,0.162,0.272,0.346,0.291,0.552h-0.333c-0.038-0.156-0.112-0.28-0.223-0.372
			c-0.111-0.091-0.268-0.137-0.469-0.137c-0.243,0-0.44,0.084-0.593,0.252c-0.149,0.168-0.226,0.425-0.226,0.772
			c0,0.284,0.067,0.515,0.204,0.692c0.136,0.178,0.338,0.266,0.607,0.266c0.248,0,0.438-0.094,0.565-0.279
			c0.068-0.098,0.12-0.227,0.154-0.387h0.334c-0.029,0.256-0.128,0.47-0.293,0.642c-0.198,0.208-0.467,0.312-0.804,0.312
			c-0.291,0-0.534-0.084-0.731-0.256c-0.261-0.226-0.39-0.574-0.39-1.046c0-0.358,0.099-0.652,0.292-0.881
			c0.211-0.249,0.503-0.374,0.873-0.374C119.678,63.838,119.924,63.918,120.098,64.081z"/>
	</g>
	<polygon fill="#EB5D2D" points="106.271,87.791 114.86,89.657 114.837,90.447 106.292,92.678 104.189,90.256 	"/>
	<path fill="#CB1651" d="M106.292,92.678H79.248c-1.367,0-2.475-1.094-2.475-2.443l0,0c0-1.35,1.106-2.442,2.475-2.442h27.044
		V92.678z"/>
	<rect x="114.759" y="89.654" fill="#CB1651" width="1.461" height="0.813"/>
	<rect x="84.103" y="87.791" fill="#EB5D2D" width="3.21" height="4.887"/>
	<rect x="82.786" y="87.791" fill="#EB5D2D" width="0.573" height="4.887"/>
	<rect x="81.137" y="87.791" fill="#EB5D2D" width="0.934" height="4.887"/>
	<rect x="87.876" y="87.791" fill="#EB5D2D" width="0.573" height="4.887"/>
	<rect x="89.164" y="87.791" fill="#EB5D2D" width="0.935" height="4.887"/>
	<path fill="#EB5D2D" d="M136.552,76.518c0,0-1.151,0.609-1.287,0.881c-0.136,0.271-2.954,5.236-7.427,5.236
		c-4.474,0-3.823-1.238-3.823-1.238l-2.805,1.067l-53.035-1.203l0.813-3.795l52.199-1.489l1.896,1.297l0.592,0.125h0.678
		c0,0,0.746-1.287,2.033-1.287s1.756,0.307,2.304,1.084c0.39,0.551,5.354,0.678,5.761-0.137
		C134.857,76.245,136.552,76.518,136.552,76.518z"/>
	<path fill="#CB1651" d="M123.814,77.049c0,0-1.778-1.072-2.626-1.072v6.494c0,0,2.513-0.378,2.513-0.945
		C123.701,80.959,122.77,79.604,123.814,77.049z"/>
	<path fill="#CB1651" d="M69.857,81.295h-3.449c-0.609,0-1.105-0.859-1.105-1.921l0,0c0-1.06,0.496-1.919,1.105-1.919h3.449"/>
</g>
</svg>
