<?xml version="1.0" encoding="utf-8"?>
<!-- Generator: Adobe Illustrator 15.0.0, SVG Export Plug-In . SVG Version: 6.00 Build 0)  -->
<!DOCTYPE svg PUBLIC "-//W3C//DTD SVG 1.1//EN" "http://www.w3.org/Graphics/SVG/1.1/DTD/svg11.dtd">
<svg version="1.1" id="Capa_1" xmlns="http://www.w3.org/2000/svg" xmlns:xlink="http://www.w3.org/1999/xlink" x="0px" y="0px"
	 width="100px" height="100px" viewBox="50.5 0 100 100" enable-background="new 50.5 0 100 100" xml:space="preserve">
<g>
	<path fill="#3C89A8" d="M137.872,89.066c0,1.994-1.736,3.61-3.878,3.61H67.023c-2.142,0-3.878-1.616-3.878-3.61V38.172
		c0-1.994-0.011-10.771-0.021-11.923l71.219,7.164c2.143,0,3.527,2.765,3.527,4.759L137.872,89.066L137.872,89.066z"/>
	<path fill="#91BDD2" d="M134.204,13.04H66.789c-2.025,0-3.666,1.636-3.666,3.655v10.126l0,0c0,0-0.996,6.84,7.876,7.659h63.203
		c2.025,0,3.666,1.642,3.666,3.667v50.841c0-0.01,0.002-0.018,0.002-0.025V16.695C137.87,14.676,136.228,13.04,134.204,13.04z"/>
	<rect x="67.474" y="30.15" fill="#336C84" width="0.668" height="62.508"/>
	<polygon fill="#336C84" points="68.139,17.535 67.472,18.404 67.474,13.042 68.142,13.042 	"/>
	<path fill="#EFEDDF" d="M137.858,33.851V19.789c0-1.632-1.552-2.956-3.463-2.956H70.719c-2.992-0.011-3.464,1.323-3.464,2.956
		l-0.007,9.155c0.01,2.476,2.224,2.092,3.75,2.114h63.203C136.159,31.057,137.754,32.294,137.858,33.851z"/>
	<path fill="#D9D6CA" d="M137.858,21.185c-0.278-1.747-1.779-3.083-3.594-3.083H67.58c-0.222,0.419-0.304,0.917-0.32,1.455h67.005
		c1.813,0,3.314,1.335,3.594,3.083V21.185z"/>
	<path fill="#D9D6CA" d="M134.266,21.335H67.258v1.455h67.008c2.013,0,3.645,1.642,3.645,3.667v-1.455
		C137.909,22.977,136.277,21.335,134.266,21.335z"/>
	<path fill="#D9D6CA" d="M134.266,24.892H67.258v1.455h67.008c2.013,0,3.645,1.642,3.645,3.667v-1.455
		C137.909,26.534,136.277,24.892,134.266,24.892z"/>
	<path fill="#D9D6CA" d="M137.858,31.693c-0.278-1.747-1.779-3.083-3.594-3.083H67.257v0.474c0.019,0.4,0.091,0.726,0.216,0.981
		h66.792c1.813,0,3.314,1.336,3.594,3.083V31.693z"/>
	<rect x="70.328" y="11.765" fill="#E94748" width="15.521" height="14.443"/>
	<g>
		<path fill="#524949" d="M107.233,65.868H95.064l-2.133,4.96c-0.525,1.221-0.788,2.132-0.788,2.734
			c0,0.479,0.229,0.899,0.685,1.264c0.455,0.363,1.439,0.599,2.955,0.707v0.857h-9.897v-0.857c1.313-0.232,2.163-0.533,2.551-0.904
			c0.787-0.74,1.659-2.248,2.618-4.52l11.057-25.866h0.812l10.94,26.146c0.881,2.102,1.681,3.465,2.396,4.09
			c0.721,0.627,1.721,0.979,3.003,1.056v0.856h-12.399v-0.856c1.251-0.062,2.099-0.271,2.537-0.626
			c0.44-0.355,0.661-0.788,0.661-1.299c0-0.68-0.311-1.754-0.928-3.221L107.233,65.868z M106.584,64.153l-5.331-12.702l-5.47,12.702
			H106.584z"/>
	</g>
</g>
</svg>
