<?xml version="1.0" encoding="utf-8"?>
<!-- Generator: Adobe Illustrator 15.0.0, SVG Export Plug-In . SVG Version: 6.00 Build 0)  -->
<!DOCTYPE svg PUBLIC "-//W3C//DTD SVG 1.1//EN" "http://www.w3.org/Graphics/SVG/1.1/DTD/svg11.dtd">
<svg version="1.1" id="Capa_1" xmlns="http://www.w3.org/2000/svg" xmlns:xlink="http://www.w3.org/1999/xlink" x="0px" y="0px"
	 width="100px" height="100px" viewBox="0 0 100 100" enable-background="new 0 0 100 100" xml:space="preserve">
<g>
	<path fill="#FFFFFF" d="M90.45,90.553c0,1.176-1.072,2.126-2.394,2.126H12.843c-1.322,0-2.393-0.95-2.393-2.126V22.88h80V90.553z"
		/>
	<path fill="#EE7560" d="M90.45,23.193v-9.036c0-1.322-1.072-2.393-2.393-2.393H12.843c-1.322,0-2.394,1.071-2.394,2.393v9.036
		H90.45z"/>
	<rect x="16.911" y="17.672" fill="#FFFFFF" width="51.281" height="2.135"/>
	<rect x="71.157" y="17.672" fill="#47565C" width="3.366" height="2.135"/>
	<rect x="75.797" y="17.672" fill="#47565C" width="3.365" height="2.135"/>
	<rect x="80.473" y="17.672" fill="#47565C" width="3.364" height="2.135"/>
	<rect x="17.896" y="28.858" fill="#D5DBDD" width="66.402" height="17.867"/>
	<rect x="73.608" y="51.227" fill="#D5DBDD" width="10.691" height="17.868"/>
	<rect x="17.755" y="51.79" fill="#47565C" width="47.271" height="1.828"/>
	<rect x="17.755" y="57.417" fill="#47565C" width="42.066" height="1.829"/>
	<rect x="17.615" y="63.044" fill="#47565C" width="50.225" height="1.829"/>
	<rect x="17.615" y="69.234" fill="#47565C" width="45.583" height="1.829"/>
	<rect x="17.474" y="75.003" fill="#47565C" width="37.985" height="1.828"/>
</g>
</svg>
