<?xml version="1.0" encoding="utf-8"?>
<!-- Generator: Adobe Illustrator 15.0.0, SVG Export Plug-In . SVG Version: 6.00 Build 0)  -->
<!DOCTYPE svg PUBLIC "-//W3C//DTD SVG 1.1//EN" "http://www.w3.org/Graphics/SVG/1.1/DTD/svg11.dtd">
<svg version="1.1" id="Capa_1" xmlns="http://www.w3.org/2000/svg" xmlns:xlink="http://www.w3.org/1999/xlink" x="0px" y="0px"
	 width="160px" height="160px" viewBox="0 0 160 160" enable-background="new 0 0 160 160" xml:space="preserve">
<path fill="#FFFFFF" d="M109.169,14.408c-11.709,1.439-21.783,7.324-28.763,15.738l-4.257-17.064L54.68,1.662l7.611,30.531
	c-0.02-0.01-0.048-0.02-0.07-0.032L70.43,65.09c0.535,1.589,0.915,3.251,1.13,4.972c1.728,14.097-8.569,26.966-23.008,28.735
	c-14.435,1.779-27.54-8.22-29.278-22.321c-1.728-14.096,8.572-26.966,23.012-28.741c1.463-0.173,2.916-0.224,4.338-0.173
	l-0.014-0.073L22.987,34.929C8.165,43.616-0.893,60.545,1.335,78.686c2.991,24.345,25.15,41.654,49.498,38.674
	c11.715-1.445,21.786-7.329,28.771-15.754l4.1,16.455l21.462,11.413l-7.452-29.904c0.01,0.011,0.021,0.011,0.025,0.011
	l-8.265-33.153l0.025-0.004c-0.493-1.513-0.854-3.088-1.056-4.722c-1.73-14.098,8.569-26.966,23.001-28.736
	c14.438-1.781,27.55,8.221,29.282,22.322c1.727,14.092-8.572,26.961-23.011,28.736c-1.482,0.186-2.942,0.229-4.382,0.181l0,0
	l23.715,12.6c14.812-8.689,23.841-25.598,21.613-43.717C155.672,28.738,133.516,11.414,109.169,14.408z"/>
<g>
	<path fill="#FFFFFF" d="M7.585,130.53c-2.249,0.921-3.93,2.874-4.77,5.746c-0.812-0.271-1.6-1.058-1.815-2.169
		c0.704-3.333,4.146-5.555,8.728-5.555c5.772,0,9.866,3.522,9.866,8.698c0,7.051-5.638,13.363-12.089,13.363
		c-2.956,0-5.123-1.221-6.178-3.469C2.925,143.513,6.828,133.078,7.585,130.53z M8.318,130.285c1.571,0.568,2.682,1.301,3.061,1.655
		c-0.568,0.787-2.385,4.31-4.01,7.911c-2.061,4.583-2.927,7.129-2.927,8.161c0.488,0.163,1.247,0.244,2.087,0.244
		c5.882,0,10.786-5.802,10.786-12.468c0-3.714-2.492-5.883-6.422-5.883C9.972,129.906,9.104,130.043,8.318,130.285z"/>
	<path fill="#FFFFFF" d="M31.72,138.552c-1.464,3.036-2.467,6.235-2.467,8.076c0,1.003,0.217,1.708,0.705,1.98
		c-0.434,0.27-1.221,0.486-1.762,0.486c-0.976,0-1.463-0.648-1.463-2.004c0-1.003,0.352-2.469,1.029-4.23
		c-1.462,3.31-3.849,6.018-5.53,6.291c-1.326-0.057-2.248-1.411-2.248-3.279c0-4.039,3.904-9.569,6.829-9.731
		c0.733,0.188,1.952,1.463,2.034,2.142c-2.9,0.46-6.452,5.258-6.452,8.59c0,0.382,0.137,0.571,0.381,0.652
		c1.056-0.216,2.357-1.734,4.309-4.987c0.759-1.272,1.842-3.307,2.629-4.934C30.472,137.604,31.748,138.2,31.72,138.552z"/>
	<path fill="#FFFFFF" d="M39.748,138.012c-0.812,1.978-3.659,5.827-3.875,7.479c1.139-1.219,2.981-3.498,3.605-4.146
		c1.38-1.464,3.93-4.146,5.69-4.146c0.921,0,1.573,0.786,1.926,1.464c0,0.081-0.298,0.108-0.788,0.677
		c-0.975,1.274-2.817,4.852-2.817,7.074c0,0.896,0.244,1.056,0.678,1.056c0.378,0,0.895-0.27,1.138-0.27
		c0.135,0.082,0.244,0.38,0.244,0.542c-0.542,0.489-1.709,1.111-2.331,1.111c-2.086,0-2.575-1.273-2.575-2.872
		c0-0.895,0.244-2.006,1.491-4.878c-0.081,0-1.139,0.514-2.196,1.543c-1.68,1.627-2.954,3.118-4.362,5.07
		c-0.788,1.112-1.383,1.95-1.817,2.194c-0.759-0.436-1.083-1.301-1.247-2.115c0-1.354,0.813-4.391,2.033-7.182
		c1.384-3.172,2.658-5.067,2.956-5.202C38.446,135.705,39.368,136.818,39.748,138.012z"/>
	<path fill="#FFFFFF" d="M52.062,155.654c-1.653,1.736-3.47,2.684-5.231,2.684c-1.789,0-3.713-0.865-4.254-1.871
		c0-0.216,0.163-0.434,0.378-0.568c0.84,0.759,1.112,0.895,1.925,0.895c4.12,0,8.023-5.013,10.057-12.819
		c-0.921,1.464-2.902,4.525-4.581,5.121c-1.138-0.054-2.685-0.838-2.982-2.114c0-1.029,0.055-1.543,0.244-2.302
		c0.677-2.737,2.602-7.319,4.851-8.974c0.598,0,1.844,0.219,2.468,0.841c-0.408,0.353-1.898,2.413-3.524,6.264
		c-0.326,0.812-1.139,3.278-1.139,4.226c0,0.273,0.136,0.433,0.19,0.489c0.649-0.109,1.788-1.031,3.143-3.035
		c1.707-2.577,2.82-5.096,4.581-7.995c0.95,0,2.304,0.459,2.629,0.865c-1.111,2.357-2.114,4.633-2.872,6.993
		C56.316,149.637,54.69,152.918,52.062,155.654z"/>
	<path fill="#FFFFFF" d="M63.48,145.383c0,0.217-0.027,0.462-0.027,0.705c0,0.922,0.216,2.169,1.247,2.169
		c1.952,0,3.821-1.951,4.961-3.172c0.188,0.161,0.325,0.298,0.459,0.461c-1.625,2.142-3.713,3.687-5.42,4.065
		c-2.494-0.272-3.958-1.98-3.958-4.147c0-4.443,4.066-9.675,7.643-9.675c0.813,0.106,1.601,0.622,2.332,1.543
		C70.444,141.776,68.088,143.54,63.48,145.383z M63.697,144.353c2.873-1.437,5.014-3.658,5.149-6.125
		C66.866,138.498,64.563,140.992,63.697,144.353z"/>
	<path fill="#FFFFFF" d="M74.11,138.443c2.222-6.07,4.174-10.109,6.043-12.386c0.868,0.163,2.737,1.247,3.036,1.708
		c-2.818,3.335-4.851,6.992-6.64,11.951c-1.517,4.229-2.332,7.751-2.332,10.029c0,0.624,0,0.652,0.027,0.787
		c-0.487-0.057-0.895-0.272-1.001-0.518c-0.083-0.188-0.488-0.622-0.732-0.783c-0.326-0.217-0.57-1.247-0.57-2.413
		C71.941,145.246,72.728,142.237,74.11,138.443z"/>
</g>
<g>
	<path fill="#FFFFFF" d="M90.091,141.371c-0.895,0-1.301-0.188-1.952-0.867c-1.788,3.904-2.899,7.155-3.549,10.245
		c-1.354-0.325-2.169-1.165-2.875-2.385c0.732-1.408,1.953-4.254,4.527-10.406c1.165-2.793,1.653-3.986,2.195-6.181
		c-1.681,0.542-3.171,1.301-4.121,2.088c-0.624-0.437-1.461-1.897-1.544-2.739c2.115-1.436,6.424-2.521,9.92-2.521
		c4.148,0,6.695,2.169,6.695,5.341C99.388,137.93,95.16,141.371,90.091,141.371z M92.45,130.856l0.326,0.487
		c-0.734,0.923-2.169,3.903-3.877,7.533c5.61,0,9.433-2.248,9.433-5.067c0-1.869-1.301-3.116-3.767-3.116
		C93.887,130.693,93.182,130.746,92.45,130.856z"/>
	<path fill="#FFFFFF" d="M100.237,145.383c0,0.217-0.028,0.462-0.028,0.705c0,0.922,0.219,2.167,1.248,2.167
		c1.952,0,3.82-1.952,4.96-3.17c0.189,0.163,0.325,0.298,0.462,0.461c-1.628,2.142-3.713,3.687-5.422,4.065
		c-2.495-0.272-3.958-1.979-3.958-4.145c0-4.446,4.065-9.68,7.645-9.68c0.812,0.108,1.598,0.626,2.33,1.547
		C107.203,141.778,104.846,143.54,100.237,145.383z M100.454,144.353c2.873-1.437,5.015-3.658,5.149-6.125
		C103.626,138.498,101.321,140.992,100.454,144.353z"/>
	<path fill="#FFFFFF" d="M111.33,137.658c0.459-1.11,0.785-1.681,1.219-2.113c1.003,0.16,2.277,0.786,2.71,1.301
		c-0.975,1.14-1.653,2.52-2.413,4.824c1.926-1.734,3.389-3.198,4.688-5.15c0.138-0.106,0.272-0.135,0.571-0.135
		c0.515,0,1.057,0.191,1.219,0.461c-0.324,0.865-0.487,1.706-0.487,2.574c0,0.788,0.107,1.382,0.353,1.789
		c-0.027,0.217-0.569,0.949-1.11,1.491c-0.978-0.488-1.789-1.436-2.141-2.492c-3.418,2.357-4.581,4.281-5.639,9.268
		c-0.651-0.053-1.979-0.921-2.224-1.463C108.43,145.897,110.029,140.751,111.33,137.658z"/>
	<path fill="#FFFFFF" d="M131.013,138.552c-1.463,3.036-2.466,6.235-2.466,8.078c0,1.003,0.217,1.708,0.705,1.979
		c-0.436,0.272-1.222,0.488-1.764,0.488c-0.975,0-1.463-0.65-1.463-2.006c0-1.003,0.353-2.469,1.029-4.228
		c-1.463,3.307-3.849,6.018-5.528,6.288c-1.328-0.055-2.249-1.411-2.249-3.279c0-4.038,3.903-9.569,6.829-9.731
		c0.732,0.19,1.951,1.463,2.033,2.144c-2.9,0.458-6.45,5.256-6.45,8.591c0,0.379,0.136,0.568,0.379,0.649
		c1.058-0.216,2.358-1.734,4.31-4.987c0.759-1.272,1.843-3.307,2.63-4.934C129.765,137.604,131.039,138.2,131.013,138.552z"/>
	<path fill="#FFFFFF" d="M134.542,138.443c2.223-6.068,4.175-10.109,6.045-12.386c0.865,0.163,2.735,1.247,3.033,1.71
		c-2.816,3.333-4.85,6.99-6.639,11.952c-1.519,4.228-2.331,7.748-2.331,10.026c0,0.624,0,0.65,0.026,0.787
		c-0.487-0.055-0.895-0.272-1.001-0.515c-0.084-0.19-0.488-0.624-0.731-0.786c-0.326-0.217-0.571-1.247-0.571-2.411
		C132.373,145.248,133.159,142.239,134.542,138.443z"/>
	<path fill="#FFFFFF" d="M141.159,145.383c0,0.217-0.026,0.462-0.026,0.705c0,0.922,0.217,2.167,1.247,2.167
		c1.951,0,3.82-1.952,4.959-3.17c0.189,0.163,0.326,0.298,0.461,0.461c-1.626,2.142-3.715,3.687-5.42,4.065
		c-2.494-0.272-3.958-1.979-3.958-4.145c0-4.446,4.066-9.68,7.645-9.68c0.812,0.108,1.599,0.626,2.329,1.547
		C148.125,141.778,145.767,143.54,141.159,145.383z M141.375,144.353c2.873-1.437,5.014-3.658,5.15-6.125
		C144.546,138.498,142.242,140.992,141.375,144.353z"/>
	<path fill="#FFFFFF" d="M157.534,140.886c-0.215-0.028-0.322-0.163-0.351-0.408c0-0.216,0.434-1.031,0.434-1.463
		c0-0.517-0.272-0.896-0.651-0.896c-1.436,0-2.222,1.87-2.222,5.339c0,0.22,0,0.271,0.028,0.326
		c0.758-0.024,1.327-0.056,1.896-0.056c0.027,0.056,0.027,0.084,0.027,0.219s-0.055,0.298-0.107,0.354
		c-1.681,0.377-1.815,0.433-1.815,0.84c0,0.27,0.024,0.54,0.024,0.973c0,3.009-1.76,4.961-4.661,5.259
		c-1.03-0.081-2.276-1.112-2.574-2.113c0-2.765,2.439-5.096,5.583-5.312c0-1.843-0.839-3.416-0.839-4.933
		c0-1.925,1.68-4.012,3.576-4.42c0.813,0.22,2.899,2.332,3.118,3.172C158.917,139.149,158.105,140.886,157.534,140.886z
		 M153.252,145.357c-1.409,0.188-3.739,2.546-3.739,3.794c0,0.406,0.19,0.732,0.542,0.975
		C151.788,149.423,153.252,147.227,153.252,145.357z"/>
</g>
</svg>
