<?xml version="1.0" encoding="utf-8"?>
<!-- Generator: Adobe Illustrator 15.0.0, SVG Export Plug-In . SVG Version: 6.00 Build 0)  -->
<!DOCTYPE svg PUBLIC "-//W3C//DTD SVG 1.1//EN" "http://www.w3.org/Graphics/SVG/1.1/DTD/svg11.dtd">
<svg version="1.1" id="Capa_1" xmlns="http://www.w3.org/2000/svg" xmlns:xlink="http://www.w3.org/1999/xlink" x="0px" y="0px"
	 width="100px" height="100px" viewBox="0 0 100 100" enable-background="new 0 0 100 100" xml:space="preserve">
<g>
	<path fill="#B7B7B7" d="M15.403,52.221c0,13.737,7.982,25.609,19.562,31.235L18.409,38.097
		C16.482,42.413,15.403,47.189,15.403,52.221z M73.539,50.471c0-4.291-1.541-7.26-2.861-9.571c-1.76-2.86-3.408-5.28-3.408-8.14
		c0-3.19,2.418-6.16,5.828-6.16c0.153,0,0.299,0.019,0.448,0.028c-6.175-5.658-14.401-9.112-23.437-9.112
		c-12.125,0-22.791,6.222-28.997,15.643c0.814,0.026,1.582,0.042,2.233,0.042c3.629,0,9.25-0.441,9.25-0.441
		c1.869-0.11,2.091,2.639,0.222,2.86c0,0-1.881,0.22-3.972,0.33l12.638,37.594l7.596-22.778L43.673,35.95
		c-1.87-0.11-3.641-0.33-3.641-0.33c-1.871-0.11-1.651-2.97,0.221-2.86c0,0,5.729,0.441,9.14,0.441c3.63,0,9.251-0.441,9.251-0.441
		c1.871-0.11,2.09,2.639,0.221,2.86c0,0-1.883,0.22-3.973,0.33l12.543,37.308l3.463-11.566
		C72.657,57.18,73.539,53.439,73.539,50.471z M50.719,55.257L40.305,85.516c3.11,0.914,6.398,1.414,9.805,1.414
		c4.042,0,7.919-0.697,11.525-1.968c-0.093-0.147-0.178-0.307-0.248-0.479L50.719,55.257z M80.564,35.571
		c0.148,1.105,0.232,2.291,0.232,3.568c0,3.521-0.658,7.48-2.64,12.431L67.557,82.218c10.317-6.016,17.258-17.192,17.258-29.998
		C84.814,46.187,83.273,40.514,80.564,35.571z"/>
	<g>
		<path fill="#B7B7B7" d="M9.565,52.221c0,22.31,18.149,40.459,40.457,40.459c22.309,0,40.458-18.148,40.458-40.459
			c0-22.308-18.149-40.456-40.458-40.456C27.715,11.765,9.565,29.914,9.565,52.221z M11.421,52.221
			c0-21.284,17.316-38.601,38.602-38.601c21.286,0,38.603,17.316,38.603,38.601c0,21.286-17.315,38.603-38.603,38.603
			C28.737,90.823,11.421,73.507,11.421,52.221z"/>
	</g>
</g>
</svg>
